Coordinates
version=1
nRows=9
nColumns=36
inDegrees=yes

Units are S.I. units (second, meters, Newtons, ...)
If the header above contains a line with 'inDegrees', this indicates whether rotational values are in degrees (yes) or radians (no).

endheader
time	pelvis_tilt	pelvis_list	pelvis_rotation	pelvis_tx	pelvis_ty	pelvis_tz	hip_flexion_r	hip_adduction_r	hip_rotation_r	knee_angle_r	knee_angle_r_beta	ankle_angle_r	subtalar_angle_r	mtp_angle_r	hip_flexion_l	hip_adduction_l	hip_rotation_l	knee_angle_l	knee_angle_l_beta	ankle_angle_l	subtalar_angle_l	mtp_angle_l	lumbar_extension	lumbar_bending	lumbar_rotation	arm_flex_r	arm_add_r	arm_rot_r	elbow_flex_r	pro_sup_r	arm_flex_l	arm_add_l	arm_rot_l	elbow_flex_l	pro_sup_l
      5.65000000	     -8.83090448	      1.49590574	     -1.70573060	      0.79748999	      0.97050902	     -0.13149000	     19.82419059	     -6.87024338	      0.82640260	     25.53108104	      0.44560143	      5.62066219	     -2.19827438	     -7.49999987	     19.58142275	     -1.29720284	      0.85284999	     30.39233615	      0.53044633	      7.59168619	     -3.08437731	     -7.49999987	     -2.27377608	      3.15625915	     -3.61158204	     -1.65951708	     -5.92219717	      2.04023940	     24.38197210	     80.72497859	     -9.38083523	     -6.89682565	     16.66300702	     27.70816694	     76.19235219
      5.66666670	     -8.53426060	      1.95477262	     -1.35328781	      0.79445300	      0.95244694	     -0.13357668	     22.33117515	     -7.46315814	      1.56995688	     31.64700297	      0.55234440	     13.52478827	     -4.18443351	     -7.49999987	     21.46796260	     -0.53308384	      0.85622312	     35.49362076	      0.61948055	     16.45303915	     -3.61023909	     -7.49999987	     -3.58795765	      2.46240458	     -3.39669449	     -1.38866433	     -5.52200811	     -3.31853668	     25.89638189	     82.95372565	     -8.79225791	     -6.81928361	     12.36138883	     27.70620508	     79.19183120
      5.68333330	     -8.29315491	      2.42946916	     -1.31533585	      0.78651286	      0.93901603	     -0.13895054	     25.40281159	     -8.13027677	      2.36554956	     38.03121288	      0.66376988	     20.04529115	     -4.75716381	     -7.49999987	     24.57176284	      0.30901158	      0.67871247	     41.83210274	      0.73010793	     23.09851144	     -4.22110202	     -7.49999987	     -5.06480515	      1.94103465	     -3.47307046	     -0.50710947	     -5.92532214	     -3.60390462	     26.42888239	     83.31766466	     -7.65791598	     -7.17766545	     11.76938006	     26.96660393	     79.51341991
      5.70000000	     -8.06337573	      2.69286017	     -1.08604066	      0.78575998	      0.93585351	     -0.13863129	     28.58807563	     -8.43951542	      3.10128688	     44.27974676	      0.77282737	     23.62913770	     -5.95736692	     -7.49999987	     27.12781365	      1.00597398	      1.01086581	     47.26090485	      0.82485840	     27.33357020	     -5.04826735	     -7.49999987	     -6.80990027	      1.63502896	     -3.18140570	     -0.37903404	     -5.81766158	     -7.21762530	     27.47875020	     87.67282110	     -6.36744083	     -7.11295745	      8.20198422	     26.06003218	     84.49616171
      5.71666670	     -8.03354378	      3.15378900	     -1.02556817	      0.78116998	      0.92642300	     -0.13927928	     31.39127715	     -8.76428197	      4.14992911	     49.10709453	      0.85708049	     25.84515759	     -6.44415356	     -7.49999987	     28.87704630	      1.77696782	      1.08812824	     50.87128415	      0.88787140	     30.26805169	     -5.65234286	     -7.49999987	     -8.23528939	      1.13785897	     -3.41183064	      0.12749691	     -5.88033271	     -7.27390098	     28.03655446	     86.00807272	     -5.42073143	     -7.48659462	      7.21138826	     25.45998660	     82.52137041
      5.73333330	     -7.98912831	      3.51289527	     -0.75187088	      0.78089782	      0.92238118	     -0.13925350	     33.02908164	     -8.88876310	      4.97378512	     52.18201711	      0.91074801	     26.87814163	     -6.62354020	     -7.49999987	     29.77153907	      2.52202145	      1.57574274	     52.80329079	      0.92159128	     31.34764366	     -6.51850233	     -7.49999987	     -9.35595152	      0.81038145	     -3.74819694	      0.85144905	     -5.90240730	     -7.85108549	     27.56005571	     88.96313709	     -4.71606530	     -7.24316735	      2.73291961	     24.83892405	     84.69463393
      5.75000000	     -8.29669400	      3.88881131	     -0.36090698	      0.77874359	      0.92743364	     -0.13717092	     33.71307912	     -8.91935939	      5.64281664	     52.75424151	      0.92073521	     26.91444622	     -6.78544109	     -7.49999987	     30.18323876	      3.11252380	      2.06664895	     52.52333019	      0.91670505	     30.99805583	     -7.01487258	     -7.49999987	     -9.91605885	      0.39809909	     -3.71111325	      1.02699463	     -5.80127306	     -8.08949634	     27.29598040	     88.97475569	     -3.36526642	     -7.49886130	      1.98934935	     24.09729424	     84.65824832
      5.76666670	     -8.31009875	      4.13494497	     -0.06215307	      0.78354074	      0.93750609	     -0.13623081	     32.30454375	     -9.01205177	      5.62810133	     50.43630171	      0.88027953	     25.69442769	     -6.95970835	     -7.49999987	     28.81777013	      3.50285388	      2.63975019	     49.83768074	      0.86983162	     29.54374799	     -6.86467612	     -7.49999987	    -10.03558512	      0.12300928	     -3.46381591	      1.00128730	     -5.58606679	     -8.39381142	     26.17467044	     88.99200048	     -1.97675856	     -7.50104301	      1.03008972	     23.21814995	     84.56257541
      5.78333330	     -8.37678308	      4.17015071	      0.33757328	      0.78993106	      0.94881356	     -0.13516808	     29.88054120	     -9.06994124	      5.09966784	     46.34953750	      0.80895204	     23.95466023	     -6.78863210	     -7.49999987	     26.94660200	      3.63307846	      3.36469850	     46.13013090	      0.80512267	     27.13470630	     -6.48309174	     -7.49999987	     -9.65019158	      0.08085796	     -3.21375712	      0.68621558	     -5.44050039	     -8.69893567	     24.95504222	     89.00369870	     -0.88196873	     -7.32805377	      0.22738038	     22.73052326	     84.49330388
